<svg width="36" height="32" viewBox="0 0 36 32" fill="none" xmlns="http://www.w3.org/2000/svg">
<path d="M23.4846 5.55582C23.4846 8.62422 20.9972 11.1116 17.9288 11.1116C14.8604 11.1116 12.3729 8.62422 12.3729 5.55582C12.3729 2.48743 14.8604 0 17.9288 0C20.9972 0 23.4846 2.48743 23.4846 5.55582Z" fill="#2E3A59"/>
<path d="M9.39714 1.06623C9.05108 0.688702 8.49312 0.585042 8.06051 0.859139C5.57196 2.43585 1.48571 6.36222 0.0332118 12.7115C-0.0986995 13.2882 0.170325 13.8803 0.698217 14.1472C1.51771 14.5615 2.59828 15.0205 3.39816 15.1004C6.43724 16.0502 12.6009 19.3741 12.9428 25.0724L12.5154 31.3405H16.7891V13.2485C13.9302 12.5678 8.80764 9.5974 10.1491 3.06913C10.2687 2.48698 10.1338 1.86987 9.73223 1.43177L9.39714 1.06623Z" fill="#2E3A59"/>
<path d="M26.6029 0.923768C26.9489 0.546245 27.5069 0.442585 27.9395 0.716682C30.428 2.29339 34.5143 6.21976 35.9668 12.5691C36.0987 13.1457 35.8297 13.7379 35.3018 14.0048C34.4823 14.4191 33.4017 14.878 32.6018 14.958C29.5628 15.9077 23.4846 18.8043 23.0572 24.93L23.4846 31.1981H19.2109V13.106C22.0698 12.4254 27.1924 9.45494 25.8509 2.92667C25.7313 2.34452 25.8662 1.72741 26.2678 1.28932L26.6029 0.923768Z" fill="#2E3A59"/>
</svg>
