<svg xmlns="http://www.w3.org/2000/svg" width="24" height="24" viewBox="0 0 24 24" fill="none">
        <path d="M7.33899 10.085L11.9998 5.42436L16.663 10.0874L19.3749 7.37544L11.9998 0L4.62711 7.37304L7.33899 10.085ZM0 11.9996L2.71208 9.28754L5.42397 11.9995L2.71192 14.7115L0 11.9996ZM7.33899 13.915L11.9998 18.5756L16.6628 13.9127L19.3763 16.6232L19.3749 16.6247L11.9998 24L4.62303 16.6234L7.33899 13.915ZM18.576 12.0011L21.2881 9.28904L24 12.0009L21.2879 14.713L18.576 12.0011Z" fill="#EFCB10"/>
        <path d="M14.7506 11.9983H14.7518L11.9998 9.24635L9.2504 11.9959L9.24656 11.9996L9.2504 12.0036L11.9998 14.7531L14.7518 12.0012L14.7531 11.9996L14.7506 11.9983Z" fill="#EFCB10"/>
    </svg>