<svg width="36" height="32" viewBox="0 0 36 32" fill="none" xmlns="http://www.w3.org/2000/svg">
<path d="M27.0306 10.8617C27.0306 15.801 23.0265 19.8052 18.0871 19.8052C13.1477 19.8052 9.14361 15.801 9.14361 10.8617C9.14361 5.92234 13.1477 1.91821 18.0871 1.91821C23.0265 1.91821 27.0306 5.92234 27.0306 10.8617Z" fill="#2E3A59"/>
<path d="M4.61791 23.8014C6.86417 23.4304 11.2033 23.7619 12.3171 27.8832L12.7499 31.3452H23.4243C23.2801 28.9891 24.0879 24.1904 28.4731 23.8442H31.3671C31.5436 23.8442 31.7083 23.767 31.8155 23.6267C35.4659 18.8485 39.7988 8.04356 30.0373 0.344005C29.798 0.155204 29.465 0.434383 29.5868 0.713845C31.442 4.96981 32.7656 13.0657 26.0208 18.6512C22.7993 21.1034 14.5963 24.0461 7.55687 16.1989C5.70936 13.6586 3.15196 7.08084 7.04459 0.429169C7.17537 0.205683 6.98822 -0.0489916 6.76673 0.00813596C6.71698 0.0209665 6.67663 0.0519609 6.63644 0.0839643C2.19287 3.62249 -4.42757 13.2131 4.21133 23.6822C4.3122 23.7973 4.46692 23.8264 4.61791 23.8014Z" fill="#2E3A59"/>
</svg>
