<svg width="29" height="36" viewBox="0 0 29 36" fill="none" xmlns="http://www.w3.org/2000/svg">
<path d="M0 7.81364L4.02662 3.58569L14.0932 13.6522L23.9584 3.58569L28.589 7.81364C26.3341 17.3165 27.9179 26.1348 28.9917 29.3561C27.381 32.2552 22.8175 34.9933 20.7371 36V21.7055C24.2805 20.7391 24.3611 16.3367 23.9584 14.2562L14.0932 20.2962L4.42928 14.2562C4.10715 19.4103 6.71104 21.3699 8.05324 21.7055V36C3.54343 34.3894 0.805324 30.8996 0 29.3561C1.44958 21.625 0.603993 11.7732 0 7.81364Z" fill="#2E3A59"/>
<path d="M22.3478 2.57904C16.0662 -2.09185 8.85857 0.632835 6.03993 2.57904L14.0932 10.6322L22.3478 2.57904Z" fill="#2E3A59"/>
</svg>
