<svg width="33" height="36" viewBox="0 0 33 36" fill="none" xmlns="http://www.w3.org/2000/svg">
<path d="M5.84714 9.70821C2.28278 12.2408 -3.35455 19.2476 2.61107 27.0141C2.51728 25.1851 2.86434 20.8515 5.00296 18.1501C4.95605 16.0396 5.05922 11.3966 5.84714 9.70821Z" fill="#2E3A59"/>
<path d="M14.7112 0C16.0244 2.48568 17.4407 8.52634 12.6007 12.8036C10.1459 14.5055 6.4577 18.3821 5.79221 23.3236C5.15978 28.0197 8.23268 32.6005 12.4988 34.663C17.1863 36.9292 23.6937 37.0186 30.3287 29.2653C32.4861 26.5451 35.0843 19.4445 28.2182 12.8036C28.0775 14.5858 27.2615 18.4878 25.1229 19.8385C24.138 20.3075 22.0838 21.6957 21.7461 23.4967C20.7612 22.887 19.8045 20.148 23.8566 14.0699C25.4981 11.0683 25.9671 4.05212 14.7112 0Z" fill="#2E3A59"/>
</svg>
