<svg width="36" height="29" viewBox="0 0 36 29" fill="none" xmlns="http://www.w3.org/2000/svg">
<path d="M35.9947 7.53834C36.2379 6.56565 27.97 0.729517 27.97 0.729517C26.6083 2.28582 25.7815 5.91719 25.5383 7.53834C25.5383 9.28919 30.0775 11.0238 32.3472 11.6723C32.3472 11.6723 35.7516 8.51103 35.9947 7.53834Z" fill="#2E3A59"/>
<path d="M8.02995 0.729517C8.02995 0.729517 -0.237912 6.56565 0.00526082 7.53834C0.248433 8.51103 3.65285 11.6723 3.65285 11.6723C5.92246 11.0238 10.4617 9.28919 10.4617 7.53834C10.2185 5.91719 9.39172 2.28582 8.02995 0.729517Z" fill="#2E3A59"/>
<path d="M11.6775 5.59297C12.326 7.29517 12.6502 9.97007 9.97529 10.9428L5.84136 12.645C7.21934 13.5366 9.97529 17.4111 9.97529 25.7763C12.4881 27.8027 19.1672 30.6884 25.7815 26.0194C25.8626 22.7771 26.8515 15.563 30.1586 12.645C28.6996 12.0776 25.6842 10.8941 25.2952 10.6996C24.6467 10.3754 23.4957 8.99738 24.0793 6.07931C21.8907 8.1868 16.3464 11.04 11.6775 5.59297Z" fill="#2E3A59"/>
<path d="M10.2185 0.486345L12.8934 0C13.4608 1.70221 15.2765 5.10662 18 5.10662C19.378 4.94451 22.3284 3.69622 23.1066 0L25.7815 0.729517C25.3762 2.43172 23.5443 6.07931 19.459 7.052C18.4053 7.29517 15.6169 7.24654 12.8934 5.10662C12.0828 4.45816 10.413 2.62626 10.2185 0.486345Z" fill="#2E3A59"/>
</svg>
