<svg width="121" height="130" viewBox="0 0 121 130" fill="none" xmlns="http://www.w3.org/2000/svg">
<path d="M113.659 51.6739C113.659 51.6739 94.2 62.7981 106.883 97.6963C118.147 128.689 77.7737 132.901 62.0765 126.37C41.7429 117.911 35.0386 88.6647 17.1144 93.8456C-0.809858 99.0265 -9.02144 57.3219 17.4193 47.9804C50.3107 36.36 33.5864 22.3028 38.8475 9.93981C42.6235 1.0668 72.4229 -7.76822 83.5903 11.5138C92.9875 27.7396 99.9709 24.0426 105.92 23.3449C114.499 22.3383 129.245 39.6757 113.659 51.6739Z" fill="#1A1A22"/>
<path d="M63.5149 49.2883C63.5149 49.2883 32.7928 83.7972 32.4377 87.624C32.4377 87.624 33.8255 88.2388 35.3732 90.0329C37.1649 92.1097 39.312 92.9022 40.3871 92.3173C41.9362 91.4753 41.8031 90.3157 41.8031 90.3157L65.5136 98.9046C65.5136 98.9046 73.8872 96.2791 90.8689 78.5778L95.3859 72.1239L63.5149 49.2883Z" fill="#D6860F"/>
<path d="M28.307 54.2733C28.307 54.2733 32.0882 56.9858 36.6072 54.4288L50.82 46.2711C50.82 46.2711 55.6591 42.6997 60.6357 46.1351C60.6357 46.1351 56.1142 57.1179 65.4294 58.9974C65.4294 58.9974 74.5204 63.1637 79.3306 67.4409C81.7492 69.5928 86.9222 73.2423 89.3819 75.3032C90.0418 75.8556 91.3922 76.6813 92.0772 77.509C93.0287 78.6587 94.8468 81.1655 91.9296 83.5974C91.9296 83.5974 89.9852 85.8814 86.0897 83.4775C82.4692 81.2433 76.1572 76.061 72.3313 73.6504C72.1237 73.5197 71.1757 73.3265 72.4982 74.6166C74.1296 76.207 81.7486 81.8388 81.7486 81.8388C81.7486 81.8388 84.5984 83.8177 85.2755 84.8222C85.8701 85.7032 86.7858 87.6379 85.0813 89.7389C85.0813 89.7389 82.661 92.9291 78.5115 90.3941L68.9846 83.7437C68.9846 83.7437 66.9587 82.4359 68.5876 84.3447C68.5876 84.3447 78.2563 91.1379 78.6365 92.1716C79.7204 95.1182 77.623 98.908 72.9114 97.0785L61.9958 91.1103C61.9958 91.1103 60.9981 90.9643 61.8147 91.7603C61.8147 91.7603 71.9426 96.987 72.6443 97.561C73.5619 98.3121 71.3336 101.852 66.7168 100.434C60.1315 98.4125 46.8213 94.7732 40.385 92.3171C38.1204 91.4533 33.4687 89.145 31.6758 88.0602C31.6758 88.0602 24.484 83.5342 14.6357 83.3461L21.7309 53.1037L28.307 54.2733Z" fill="#FFE87B"/>
<path d="M39.3095 94.3554C39.3095 94.3554 41.3892 91.6082 42.6747 90.6145C45.2828 88.5992 49.9885 90.5522 50.2171 93.0219C50.2171 93.0219 51.2316 95.4486 47.0247 99.0276C46.2469 99.6888 43.7755 101.26 40.1618 98.2907C40.1617 98.2909 38.0058 96.3081 39.3095 94.3554Z" fill="#F5B049"/>
<path d="M43.4753 69.9359C43.4753 69.9359 49.5013 74.7083 55.7392 60.511C55.7392 60.511 59.0583 61.6676 64.2147 58.6771L65.2891 57.0064C65.2891 57.0064 54.8164 58.121 54.8626 58.327C54.9088 58.5329 43.4753 69.9359 43.4753 69.9359Z" fill="#D6860F"/>
<path d="M48.2704 99.7283C48.1963 97.9064 50.7504 94.5638 51.8683 93.3839C53.1854 91.9936 58.3723 90.6647 58.9749 96.1863C58.9749 96.1863 58.6533 100.056 55.7721 102.262C54.4024 103.311 48.4272 103.591 48.2704 99.7283Z" fill="#F5B049"/>
<path d="M59.8943 96.9724C60.7769 95.5684 65.1526 94.8986 65.2503 98.9304C65.2872 100.457 64.4919 102.974 62.2247 103.971C60.5765 104.696 56.2262 103.516 57.0532 101.748C57.6211 100.533 57.8989 100.145 59.8943 96.9724Z" fill="#F5B049"/>
<path d="M31.5766 90.7556C31.9568 89.9199 32.585 89.1186 33.8396 88.1077C34.5986 87.4967 36.7315 87.2593 38.0142 88.0603C38.9348 88.6357 40.7497 89.9838 40.3429 91.183C39.5692 93.4614 38.2574 96.5484 35.4174 95.6564C35.4173 95.6562 29.8815 94.4815 31.5766 90.7556Z" fill="#F5B049"/>
<path d="M27.1737 51.2972L21.3774 88.9781L2.76514 85.396L11.0138 47.0105L27.1737 51.2972Z" fill="#F5B049"/>
<path d="M33.6267 89.4855C33.6267 89.4855 32.7167 92.0674 34.3324 93.1521C34.3324 93.1521 36.4116 95.6473 38.9853 91.5257C39.4142 90.8389 38.4552 89.6265 36.7566 89.1733C36.7567 89.1733 35.1474 88.5535 33.6267 89.4855Z" fill="white"/>
<path d="M41.8627 94.1284C41.8627 94.1284 42.9221 91.7573 43.8218 91.3932C44.7485 91.018 47.5323 90.9573 48.702 93.692C48.9032 94.1621 48.1766 95.1442 47.8495 95.6647C47.2467 96.6259 45.6903 98.0644 43.8808 97.0764C43.8806 97.076 41.5658 96.2404 41.8627 94.1284Z" fill="white"/>
<path d="M51.3346 96.1579C51.5859 95.469 52.5615 94.2137 53.4494 94.1251C54.9099 93.9797 58.2826 95.0628 57.3913 97.2224C57.3913 97.2224 56.626 99.0533 54.984 99.4802C54.984 99.4802 52.1363 100.501 51.0829 97.8513C50.9244 97.4534 51.1888 96.5599 51.3346 96.1579Z" fill="white"/>
<path d="M59.0668 100.299C59.4873 101.348 61.2908 102.432 62.3915 101.433C62.8378 101.028 63.757 99.6741 63.8073 99.0743C63.8915 98.0594 61.8947 95.917 60.1454 97.9122C59.7326 98.3832 58.8338 99.718 59.0668 100.299Z" fill="white"/>
<path d="M67.6294 45.1569C67.6294 45.1569 61.5392 43.2362 56.8807 47.9133L49.0724 52.6943C49.0724 52.6943 45.7421 53.7985 44.7118 58.2543L41.1649 65.6292C41.1649 65.6292 38.2993 70.6895 46.6562 69.9965C46.6562 69.9965 51.4392 67.9751 55.2367 60.2947L55.21 59.3142C55.21 59.3142 55.7512 60.5237 58.5113 60.0381C58.5113 60.0381 61.3618 59.0514 65.3044 57.7458C65.3044 57.7458 65.9443 58.5245 69.7317 60.6043C69.7317 60.6043 78.9911 65.4493 81.1439 68.0323L92.237 76.4752C92.237 76.4752 93.9591 75.7874 98.2442 69.1237L107.805 65.7252L97.7746 38.3598C97.7746 38.3598 82.5031 44.3406 78.0189 44.7877L67.6294 45.1569Z" fill="#F5B049"/>
<path d="M91.1011 39.0254L104.313 70.1282L118.373 64.6714L104.562 33.1897L91.1011 39.0254Z" fill="#FFE87B"/>
<path d="M42.9294 61.9658C42.9294 61.9658 46.2858 60.6954 47.2755 63.0189C47.2755 63.0189 46.2558 67.1615 45.1085 68.0798C44.2216 68.7908 41.2772 69.0816 40.6982 67.5659C40.6982 67.5659 40.3339 66.0043 42.9294 61.9658Z" fill="white"/>
<path d="M73.1924 62.5099C73.1924 62.5099 79.436 65.0748 85.743 60.0222C85.743 60.0222 81.4105 65.8609 75.5786 63.9195L73.1924 62.5099Z" fill="#D6860F"/>
<path d="M15.0753 81.72C15.1161 82.1282 15.0349 82.5393 14.842 82.9013C14.6491 83.2634 14.3532 83.5601 13.9917 83.754C13.6301 83.9478 13.2192 84.0301 12.8109 83.9904C12.4026 83.9507 12.0152 83.7909 11.6978 83.531C11.3803 83.2711 11.1471 82.923 11.0275 82.5306C10.908 82.1381 10.9075 81.7191 11.0261 81.3264C11.1447 80.9337 11.3772 80.585 11.694 80.3244C12.0108 80.0637 12.3978 79.9029 12.806 79.8623C13.3532 79.8078 13.8997 79.9729 14.3253 80.3213C14.7508 80.6696 15.0206 81.1727 15.0753 81.72Z" fill="white"/>
<path d="M111.566 61.6432C111.606 62.0513 111.525 62.4623 111.332 62.8242C111.139 63.1861 110.843 63.4827 110.482 63.6765C110.12 63.8702 109.71 63.9524 109.301 63.9127C108.893 63.873 108.506 63.7131 108.189 63.4533C107.871 63.1935 107.638 62.8454 107.518 62.4531C107.399 62.0608 107.398 61.6418 107.517 61.2492C107.636 60.8566 107.868 60.5079 108.185 60.2474C108.501 59.9868 108.888 59.826 109.296 59.7852C109.567 59.7582 109.841 59.7848 110.102 59.8635C110.362 59.9423 110.605 60.0716 110.816 60.2441C111.027 60.4167 111.201 60.629 111.33 60.8691C111.459 61.1091 111.539 61.3721 111.566 61.6432Z" fill="white"/>
</svg>
