<svg width="35" height="35" viewBox="0 0 35 35" fill="none" xmlns="http://www.w3.org/2000/svg">
<path d="M14.6 1.32516V6.12516H13.8455C12.2157 6.12516 10.6525 6.77262 9.5 7.9251V10.0251H12.8V18.7251C2.48 16.8051 6.7 13.3251 10.1 11.8251C6.09235 11.5665 3.35559 12.457 1.58963 13.615C-0.57746 15.036 -0.464534 18.1345 1.6912 19.5727C5.97621 22.4314 13.3787 22.8604 17.3 22.6251C26.2745 22.4619 30.8115 20.9952 33.0793 19.3186C34.71 18.1131 34.9144 15.666 33.4237 14.2911C30.8692 11.9351 26.1553 11.6702 23.6 11.8251C32.24 15.6651 25.4 17.8251 20.9 18.4251V10.0251H24.5V7.9251C23.5495 6.78459 22.1416 6.12516 20.657 6.12516H19.1V1.32516C17.42 -1.07484 15.4 0.325164 14.6 1.32516Z" fill="#2E3A59"/>
<path d="M12.8 27.4251V24.4251H20.9V27.4251L17.3 34.3251L12.8 27.4251Z" fill="#2E3A59"/>
</svg>
