<svg width="121" height="122" viewBox="0 0 121 122" fill="none" xmlns="http://www.w3.org/2000/svg">
<path d="M39.2942 118.529C47.7434 123.622 53.771 121.508 56.0787 117.424C60.5413 109.527 75.3792 93.3768 98.8931 87.9184C130.036 80.6889 123.532 61.4935 104.387 51.4207C85.2427 41.3478 70.9278 27.4101 73.0944 12.2554C75.2609 -2.89941 53.7945 -8.12374 44.2481 21.0289C38.079 39.8685 27.0236 44.9156 19.9737 46.1289C13.3293 47.2723 6.06125 48.707 2.51698 54.4422C-1.78377 61.4009 -0.283014 68.4401 17.7232 73.2681C43.2399 80.1098 20.356 107.114 39.2942 118.529Z" fill="#1A1A22"/>
<path d="M17.3414 85.5093C17.6989 85.3046 21.7347 83.5961 41.812 92.956C41.7535 93.0356 41.7286 93.0733 41.7286 93.0733C41.7286 93.0733 20.8564 100.102 16.7668 91.443C15.5456 88.8651 15.8956 87.0899 17.3065 85.5293L17.3414 85.5093Z" fill="#6333FF"/>
<path d="M84.8225 89.0512C80.4606 92.7183 73.62 95.3799 67.0195 91.8405C68.0626 91.174 69.1399 90.4876 70.2386 89.7774C76.8672 85.5184 82.7059 88.3682 84.8225 89.0512Z" fill="#6333FF"/>
<path d="M92.6358 43.9504C97.0924 81.06 86.5015 87.795 85.3225 88.818C84.9812 89.1142 84.8428 89.0926 84.3267 88.9597L84.3179 88.9647C82.1337 88.3857 76.8674 85.5183 70.2386 89.7769C69.1399 90.487 68.0622 91.1735 67.0195 91.84C60.2574 96.1286 54.7967 99.1509 50.8627 97.3968C47.5257 95.6945 44.517 94.2212 41.812 92.9558C21.7348 83.5959 17.699 85.3044 17.3414 85.5092C17.7563 85.2832 21.5624 83.1734 26.6872 79.4634C26.7046 79.4534 26.7221 79.4434 26.7258 79.4297C33.5758 74.4654 42.7494 66.6423 49.3433 56.5788C53.8322 49.7357 58.2237 32.3875 66.6967 28.9835C84.1105 22.4874 91.9128 36.4021 92.6358 43.9504Z" fill="#9F82FF"/>
<path d="M73.3812 43.2994C73.9217 41.8721 73.869 40.5291 73.2635 40.2998C72.6579 40.0704 71.7289 41.0416 71.1883 42.469C70.6478 43.8963 70.7005 45.2393 71.306 45.4686C71.9115 45.6979 72.8406 44.7267 73.3812 43.2994Z" fill="white"/>
<path d="M84.4688 45.1205C84.8519 43.6431 84.6543 42.3137 84.0275 42.1512C83.4008 41.9886 82.5821 43.0546 82.199 44.532C81.8159 46.0094 82.0135 47.3388 82.6403 47.5013C83.267 47.6639 84.0857 46.5979 84.4688 45.1205Z" fill="white"/>
<path d="M77.7196 50.5451C77.6288 50.545 77.5407 50.5138 77.47 50.4568C77.3993 50.3998 77.3503 50.3203 77.331 50.2315C77.26 49.9102 76.9443 48.9594 76.4436 48.8181C75.943 48.6767 74.9609 49.2254 74.5635 49.5132C74.478 49.5751 74.3714 49.6006 74.2671 49.5839C74.1629 49.5672 74.0695 49.5098 74.0076 49.4243C73.9456 49.3388 73.9202 49.2321 73.9369 49.1279C73.9536 49.0236 74.011 48.9302 74.0965 48.8683C74.2531 48.7549 75.6555 47.7683 76.6598 48.0517C77.7072 48.3473 78.071 49.8875 78.1089 50.0622C78.1215 50.1203 78.121 50.1806 78.1073 50.2385C78.0936 50.2964 78.0671 50.3506 78.0298 50.3969C77.9924 50.4432 77.9452 50.4806 77.8914 50.5062C77.8377 50.5319 77.779 50.5451 77.7194 50.5451H77.7196Z" fill="white"/>
</svg>
