<svg width="36" height="35" viewBox="0 0 36 35" fill="none" xmlns="http://www.w3.org/2000/svg">
<path d="M13.9228 3.51432C13.2003 3.08085 13.0599 2.09302 13.7374 1.59224C15.7747 0.0865154 19.0971 -1.05578 22.3797 1.55831C23.0388 2.08316 22.8906 3.08085 22.1682 3.51432C21.3644 3.99656 20.8727 4.86512 20.8727 5.80241V10.0807H28.9328C29.7604 10.0807 30.4313 9.40975 30.4313 8.58214C30.4313 7.9347 30.9814 7.42164 31.605 7.59566C33.1799 8.03516 35.228 9.22501 35.8165 11.8308C36.0245 12.7523 36.2587 14.6706 35.2693 15.9629C34.6383 16.7869 33.4351 16.5378 32.634 15.8781C31.9933 15.3504 31.1891 15.0619 30.3591 15.0619H20.8727V28.1581C20.8727 29.4045 21.465 30.5768 22.4685 31.3162C22.9974 31.706 23.108 32.4589 22.6252 32.9046C20.7949 34.5945 17.3861 36.0499 13.5197 32.9233C12.9769 32.4843 13.0501 31.6581 13.622 31.2577C14.6224 30.5574 15.2183 29.413 15.2183 28.1918V15.0619H6.96598C5.84901 15.0619 4.75521 15.3804 3.81286 15.9801C2.83489 16.6024 1.53103 16.9032 0.808336 15.9968C0.32265 15.3877 -0.0487178 14.4446 0.00521086 13.0425C0.241796 11.2681 1.53857 8.24641 4.11472 7.53925C4.7293 7.37055 5.25573 7.90473 5.25573 8.54204C5.25573 9.39179 5.94459 10.0807 6.79434 10.0807H15.2183V5.80241C15.2183 4.86512 14.7265 3.99656 13.9228 3.51432Z" fill="#2E3A59"/>
</svg>
