<svg width="28" height="36" viewBox="0 0 28 36" fill="none" xmlns="http://www.w3.org/2000/svg">
<path d="M13.901 0L6.41584 9.62376L13.901 18.8911L21.3861 9.62376L13.901 0Z" fill="#2E3A59"/>
<path d="M0 15.6832H6.05941C6.65347 17.5842 9.05347 21.3861 13.901 21.3861C15.802 21.505 20.0317 20.5307 21.7426 15.6832H27.802C27.3716 18.05 25.4411 22.8523 21.0576 24.7973C20.2272 25.1658 19.604 25.9402 19.604 26.8487V28.1192C19.604 28.8088 19.2487 29.4497 18.664 29.8152L16.7525 31.0099V34C16.7525 35.1046 15.857 36 14.7525 36H13.0495C11.9449 36 11.0495 35.1046 11.0495 34V31.0099L8.8703 29.7992C8.23537 29.4465 7.84158 28.7773 7.84158 28.0509V26.9849C7.84158 26.0144 7.1325 25.189 6.25934 24.7655C4.06602 23.7015 1.11868 21.0528 0 15.6832Z" fill="#2E3A59"/>
</svg>
