<svg width="36" height="36" viewBox="0 0 36 36" fill="none" xmlns="http://www.w3.org/2000/svg">
<path d="M2.46597 10.7233C2.85407 9.98726 3.91627 10.0924 4.24569 10.8565C4.74078 12.0049 5.35096 13.2314 5.9266 13.9641C6.25994 14.3884 6.50849 14.9961 6.3774 15.5195C5.43351 19.2881 5.26888 26.5805 10.1194 33.2542C10.6916 34.0415 10.0728 34.9922 9.21276 34.5365C6.90702 33.3149 3.94855 31.035 1.50622 27.197C0.123148 24.687 -1.43081 18.1137 2.46597 10.7233Z" fill="#33CC83"/>
<path d="M17.6859 35.1103C17.3474 35.4356 16.8258 35.461 16.4613 35.165C12.4768 31.9283 6.40179 24.1075 9.798 14.9252C10.6775 11.3035 15.3149 3.71097 26.8917 0.577809C28.1414 0.239586 29.307 1.24597 29.3584 2.53963C29.4584 5.06067 29.9361 8.10787 31.5224 10.2818C36 16.4177 36 19.0711 36 23.217C36 27.1048 34.425 33.5883 25.5862 35.3651C24.8007 35.523 24.217 34.693 24.5488 33.9638C26.2421 30.2424 28.2208 24.4369 27.6438 20.2232C27.5194 19.315 26.4467 19.3766 26.1649 20.249C24.7774 24.5438 21.9457 31.0167 17.6859 35.1103Z" fill="#33CC83"/>
</svg>
