<svg width="36" height="35" viewBox="0 0 36 35" fill="none" xmlns="http://www.w3.org/2000/svg">
<path d="M18 0C15.3191 2.04255 9.88085 7.2766 9.57447 11.8723C9.06383 13.2766 6.43404 16.9277 0 20.2979C1.40426 24.383 5.51489 32.9362 10.7234 34.4681C8.80851 31.5319 5.89787 24.5872 9.57447 20.2979L14.1702 13.7872L18 16.8511L21.8298 13.7872L26.0426 20.2979C27.7021 22.4681 29.8723 28.3404 25.2766 34.4681C27.4468 33.7021 32.6298 29.7957 36 20.2979C33.5745 19.1489 28.1872 15.8553 26.0426 11.8723C26.2979 9.95745 25.0468 4.90213 18 0Z" fill="#2E3A59"/>
</svg>
