<svg width="36" height="36" viewBox="0 0 36 36" fill="none" xmlns="http://www.w3.org/2000/svg">
<path d="M3.56436 33.8614C2.37624 33.1485 0 30.1545 0 23.8812H3.56436L10.3366 16.0396L6.41584 6.41584L15.3267 10.3366L22.8119 4.27723L23.5248 0C25.901 0.237624 31.1525 1.42574 33.1485 4.27723C31.1287 3.92079 26.7327 3.92079 25.3069 6.77228C24.7129 7.48515 23.3822 9.33861 22.8119 11.0495C20.6733 12 16.4673 14.1149 16.7525 14.9703L28.5149 27.0891H33.1485L36 31.3663H31.7228V36L27.4455 33.1485V29.5842L14.6139 16.7525C13.3069 18.297 10.6931 21.7426 10.6931 23.1683C8.79208 24 5.06139 26.1624 5.34653 28.1584C4.63366 29.4653 3.27921 32.4356 3.56436 33.8614Z" fill="#2E3A59"/>
<path d="M28.1584 7.84158C26.7327 7.84158 24.6653 9.48119 24.9505 10.3366V21.3861C25.6634 22.5743 27.3743 24.9505 28.5149 24.9505L28.1584 7.84158Z" fill="#2E3A59"/>
<path d="M8.19804 28.8713C8.07923 28.1584 8.19804 25.8772 9.62378 25.3069H21.7426L24.5941 28.8713H8.19804Z" fill="#2E3A59"/>
</svg>
