<svg width="36" height="31" viewBox="0 0 36 31" fill="none" xmlns="http://www.w3.org/2000/svg">
<path d="M0.719268 11.9831C0.297677 11.6927 0.21566 11.1146 0.499648 10.6886L1.47289 9.22871C1.84831 8.66558 2.67811 8.63083 3.24571 8.99947C4.47627 9.79869 6.38122 10.1604 8.36807 8.09082C10.739 5.34795 16.7919 -0.109889 22.0359 0.00168483C24.6589 0.122741 29.8739 1.56784 32.2994 6.17951C32.7195 6.97841 31.7978 7.73316 30.9667 7.38084C28.2787 6.2413 24.2045 5.16927 20.2228 5.99878C19.1071 6.13826 15.8435 7.42138 11.7153 11.438C9.82043 12.9363 5.1019 15.0027 0.719268 11.9831Z" fill="#4A7DFD"/>
<path d="M1.5366 15.3365C1.00896 15.0037 0.30388 15.1886 0.35269 15.8105C0.438524 16.904 1.21953 18.4173 3.76563 19.8061C5.53222 20.5499 10.0138 21.3681 13.8073 18.6904C16.1783 16.7843 22.4264 14.1158 28.4514 18.6904C28.9317 19.1 29.5578 19.6495 30.1969 20.2348C31.4772 21.4076 34.9559 21.3814 35.4906 19.7295C35.795 18.7893 35.9972 17.7145 36 16.5308C36.0009 16.121 35.8507 15.727 35.5815 15.4181C33.5861 13.1282 29.0063 9.3104 23.7095 9.20654C21.9429 9.11356 17.2103 10.0155 12.4126 14.3669C10.7152 16.0208 6.30401 18.3429 1.5366 15.3365Z" fill="#4A7DFD"/>
<path d="M4.31554 23.9952C3.4898 23.7335 2.89123 24.3712 3.50274 24.9847C4.60726 26.0928 6.41499 27.2815 8.92594 27.6163C9.85572 27.6163 12.329 27.3374 14.7836 26.2216C16.3642 25.8497 20.0276 25.6916 22.0359 28.0347C22.5069 28.357 23.2608 28.9304 23.9296 29.5646C24.7711 30.3627 26.1331 30.8132 27.1172 30.1994C28.0557 29.614 29.0553 28.8904 29.764 28.1409C30.3209 27.5519 30.188 26.6664 29.6286 26.0798C27.2457 23.5813 23.2389 19.8235 19.9439 19.9456C17.4335 19.9456 14.1699 21.4239 12.831 22.8744C11.7419 23.9232 8.67865 25.378 4.31554 23.9952Z" fill="#4A7DFD"/>
</svg>
