<svg width="21" height="21" viewBox="0 0 21 21" fill="none" xmlns="http://www.w3.org/2000/svg">
<g clip-path="url(#clip0)">
<path d="M10.5 20.7576C16.232 20.7576 20.8788 16.1108 20.8788 10.3788C20.8788 4.64674 16.232 0 10.5 0C4.76793 0 0.121185 4.64674 0.121185 10.3788C0.121185 16.1108 4.76793 20.7576 10.5 20.7576Z" fill="#3B1822"/>
<g clip-path="url(#clip1)">
<path d="M10.5 0C4.79937 0 0.121185 4.67818 0.121185 10.3788C0.121185 15.2434 3.53464 19.6623 8.06744 20.7576V17.3238C7.61831 17.4222 7.20497 17.425 6.74777 17.2903C6.13441 17.1093 5.63602 16.7007 5.26608 16.0776C5.03027 15.6798 4.61234 15.2484 4.17635 15.2801L4.06945 14.0686C5.01221 13.9878 5.82781 14.643 6.31194 15.4564C6.527 15.8181 6.77453 16.0301 7.09222 16.1239C7.39929 16.2143 7.72901 16.1709 8.11321 16.0352C8.20966 15.266 8.56203 14.9781 8.82824 14.5727V14.572C6.12491 14.1688 5.04753 12.7347 4.61994 11.6027C4.0533 10.0996 4.35736 8.22182 5.35936 7.03517C5.37883 7.01205 5.41399 6.95155 5.40037 6.90927C4.94095 5.52149 5.50078 4.37348 5.52137 4.2517C6.05158 4.40848 6.13773 4.09396 7.82451 5.11876L8.11606 5.29392C8.23801 5.36661 8.19968 5.32511 8.32162 5.31593C9.02588 5.12462 9.76831 5.01899 10.4998 5.00949C11.2369 5.01899 11.9745 5.12462 12.7079 5.32369L12.8023 5.33319C12.7941 5.33192 12.828 5.32717 12.8848 5.29328C14.9919 4.017 14.9162 4.43414 15.4813 4.25043C15.5017 4.37237 16.0541 5.53907 15.5996 6.90927C15.5383 7.09804 17.4263 8.82694 16.3798 11.6022C15.9523 12.7347 14.875 14.1688 12.1717 14.572V14.5727C12.5182 15.1008 12.9346 15.3818 12.9323 16.4713V20.7576C17.4653 19.6623 20.8786 15.2434 20.8786 10.3788C20.8788 4.67818 16.2006 0 10.5 0V0Z" fill="#EDCD90"/>
</g>
</g>
<defs>
<clipPath id="clip0">
<rect width="20.7576" height="20.7576" fill="white" transform="translate(0.121185)"/>
</clipPath>
<clipPath id="clip1">
<rect width="20.7576" height="20.7576" fill="white" transform="translate(0.121185)"/>
</clipPath>
</defs>
</svg>
