<svg width="21" height="21" viewBox="0 0 21 21" fill="none" xmlns="http://www.w3.org/2000/svg">
<g clip-path="url(#clip0)">
<path d="M10.5985 20.7576C16.3305 20.7576 20.9772 16.1108 20.9772 10.3788C20.9772 4.64674 16.3305 0 10.5985 0C4.86641 0 0.219666 4.64674 0.219666 10.3788C0.219666 16.1108 4.86641 20.7576 10.5985 20.7576Z" fill="#EDCD90"/>
<path d="M15.832 6.34818L16.8257 5.39749V5.18939H13.3831L10.9295 11.2963L8.13817 5.18939H4.52842V5.39749L5.68929 6.79499C5.80242 6.89826 5.86158 7.04927 5.84653 7.20132V12.6933C5.88234 12.891 5.81799 13.0944 5.67891 13.2381L4.37119 14.823V15.0285H8.07901V14.8204L6.77128 13.2381C6.62961 13.0939 6.56267 12.8941 6.59121 12.6933V7.94288L9.846 15.0311H10.2243L13.0229 7.94288V13.5895C13.0229 13.7384 13.0229 13.769 12.9254 13.8666L11.9186 14.8406V15.0492H16.8029V14.8411L15.8325 13.891C15.7474 13.8266 15.7033 13.7187 15.7214 13.6139V6.6253C15.7033 6.51995 15.7469 6.41201 15.832 6.34818Z" fill="#3B1822"/>
</g>
<defs>
<clipPath id="clip0">
<rect width="20.7576" height="20.7576" fill="white" transform="translate(0.219666)"/>
</clipPath>
</defs>
</svg>
