<svg width="21" height="21" viewBox="0 0 21 21" fill="none" xmlns="http://www.w3.org/2000/svg">
<g clip-path="url(#clip0)">
<path d="M10.4015 20.7576C16.1335 20.7576 20.7803 16.1108 20.7803 10.3788C20.7803 4.64674 16.1335 0 10.4015 0C4.66945 0 0.0227051 4.64674 0.0227051 10.3788C0.0227051 16.1108 4.66945 20.7576 10.4015 20.7576Z" fill="#EDCD90"/>
<path d="M4.77189 10.1539L14.7788 6.29557C15.2432 6.12778 15.6489 6.40888 15.4984 7.11117L15.4992 7.11031L13.7954 15.1374C13.6691 15.7065 13.3309 15.8449 12.8578 15.5768L10.2631 13.6645L9.01163 14.8702C8.87324 15.0086 8.75648 15.1253 8.48836 15.1253L8.67259 12.4848L13.4814 8.1404C13.6907 7.95618 13.4347 7.85239 13.1588 8.03575L7.2161 11.7773L4.65427 10.9781C4.09814 10.8017 4.08603 10.422 4.77189 10.1539Z" fill="#3B1822"/>
</g>
<defs>
<clipPath id="clip0">
<rect width="20.7576" height="20.7576" fill="white" transform="translate(0.0227051)"/>
</clipPath>
</defs>
</svg>
