<svg width="21" height="21" viewBox="0 0 21 21" fill="none" xmlns="http://www.w3.org/2000/svg">
<g clip-path="url(#clip0)">
<rect x="4.39392" y="3.11365" width="13.4924" height="12.4545" fill="#3B1822"/>
<path d="M3.33874 18.3324H15.6713L15.0823 16.4253C15.1697 16.5014 20.1351 20.7576 20.1351 20.7576V2.14062C20.0763 0.98339 19.0799 0 17.8448 0L3.34306 0.0025947C2.10885 0.0025947 1.1073 0.987714 1.1073 2.14495V16.1909C1.1073 17.4113 2.10712 18.3324 3.33874 18.3324ZM12.4617 4.91522L12.4331 4.9256L12.4435 4.91522H12.4617ZM5.86165 6.01278C7.44701 4.859 8.91647 4.91436 8.91647 4.91436L9.03496 5.03112C7.09499 5.49384 6.21539 6.36047 6.21539 6.36047C6.30534 6.34144 10.2225 4.08146 14.969 6.41755C14.969 6.41755 14.0877 5.60714 12.2671 5.0882L12.428 4.92992C12.6796 4.93079 14.0116 4.97749 15.4369 6.0197C15.4369 6.0197 17.0318 8.74413 17.0318 12.0913C16.9791 12.0273 16.0424 13.5322 13.6319 13.5841C13.6319 13.5841 13.2237 13.1222 12.9331 12.7192C14.3428 12.3144 14.8704 11.5049 14.8704 11.5049C12.1261 13.233 9.72083 12.9631 6.84331 11.7955C6.8165 11.7955 6.80439 11.7834 6.79055 11.7695V11.7644C6.77671 11.7514 6.7646 11.7384 6.73779 11.7384H6.6859C6.50946 11.6225 6.39183 11.5654 6.39183 11.5654C6.39183 11.5654 6.91855 12.375 8.27212 12.7797C7.91665 13.1854 7.56463 13.6464 7.56463 13.6464C5.15503 13.5893 4.27629 12.0844 4.27629 12.0844C4.27629 8.73202 5.86165 6.01278 5.86165 6.01278Z" fill="#EDCD90"/>
<path d="M12.6174 11.0456C13.2323 11.0456 13.7331 10.5267 13.7331 9.88663C13.7331 9.25093 13.2349 8.73199 12.6174 8.73199V8.73459C12.005 8.73459 11.5034 9.2518 11.5016 9.89182C11.5016 10.5267 12.0024 11.0456 12.6174 11.0456Z" fill="#EDCD90"/>
<path d="M8.62326 11.0456C9.2382 11.0456 9.73898 10.5267 9.73898 9.88663C9.73898 9.25093 9.24166 8.73199 8.62672 8.73199L8.62326 8.73459C8.00831 8.73459 7.50754 9.2518 7.50754 9.89182C7.50754 10.5267 8.00831 11.0456 8.62326 11.0456Z" fill="#EDCD90"/>
</g>
<defs>
<clipPath id="clip0">
<rect width="20.7576" height="20.7576" fill="white" transform="translate(0.242371)"/>
</clipPath>
</defs>
</svg>
