<svg width="20" height="20" viewBox="0 0 20 20" fill="none" xmlns="http://www.w3.org/2000/svg">
<circle cx="10" cy="10" r="10" fill="#EDCD90"/>
<path fill-rule="evenodd" clip-rule="evenodd" d="M16 6.15432C15.5588 6.35031 15.0841 6.4823 14.5861 6.5419C15.0945 6.23712 15.4848 5.75475 15.6684 5.17999C15.1933 5.46237 14.6657 5.66676 14.1053 5.77755C13.6562 5.29918 13.0158 5 12.3082 5C10.9487 5 9.8464 6.10233 9.8464 7.46184C9.8464 7.65462 9.8684 7.84261 9.9104 8.023C7.86413 7.92061 6.05024 6.94027 4.83592 5.45077C4.62393 5.81435 4.50274 6.23712 4.50274 6.68829C4.50274 7.54223 4.93671 8.29578 5.59787 8.73736C5.19389 8.72456 4.81472 8.61376 4.48234 8.42937V8.46017C4.48234 9.65329 5.33149 10.648 6.45701 10.8748C6.25063 10.9308 6.03304 10.9612 5.80866 10.9612C5.64987 10.9612 5.49548 10.9456 5.34508 10.9168C5.65826 11.8947 6.56781 12.6067 7.64494 12.6267C6.80259 13.2867 5.74106 13.6806 4.58753 13.6806C4.38834 13.6806 4.19236 13.669 3.99997 13.6458C5.0895 14.3442 6.38342 14.7522 7.77373 14.7522C12.3018 14.7522 14.7781 11.0008 14.7781 7.74782C14.7781 7.64102 14.7761 7.53463 14.7709 7.42944C15.2525 7.08146 15.67 6.64789 16 6.15432Z" fill="#3B1822"/>
</svg>
